<svg width="220" height="46" viewBox="0 0 220 46" fill="none" xmlns="http://www.w3.org/2000/svg">
<g clip-path="url(#clip0_67_551)">
<path d="M36.2272 5.02969L33.2322 10.0275C33.0774 10.287 33.132 10.6192 33.3642 10.815C33.4734 10.906 33.5781 11.0016 33.6874 11.0972C33.9104 11.2974 34.2518 11.3111 34.4885 11.1199L39.0448 7.48763C39.3361 7.25549 39.3588 6.81852 39.0903 6.55907C38.4758 5.95824 37.8295 5.38927 37.1512 4.86127C36.8554 4.63368 36.4275 4.71106 36.2363 5.02969H36.2272ZM38.7307 25.8722C38.717 25.9541 38.6988 26.036 38.6852 26.118C38.626 26.4138 38.7944 26.7051 39.0721 26.8144L44.5251 28.8809C44.8756 29.0129 45.2579 28.808 45.3489 28.4484C45.531 27.7065 45.6767 26.9464 45.7814 26.1771C45.8314 25.8084 45.5492 25.4762 45.176 25.4716L39.3497 25.376C39.0493 25.3715 38.7853 25.5854 38.7307 25.8813V25.8722ZM33.2322 35.2852C33.2322 35.2852 33.2276 35.2852 33.2231 35.2897C32.9909 35.4855 32.9318 35.8177 33.082 36.0772L36.0179 41.1114C36.2045 41.4346 36.6369 41.5165 36.9328 41.2889C37.4562 40.8884 37.9615 40.4696 38.4485 40.0236C38.7261 39.7732 38.7216 39.3362 38.4394 39.0904L34.0287 35.2852C33.8012 35.0849 33.4598 35.0849 33.2276 35.2806L33.2322 35.2852ZM27.6426 38.303C26.3181 38.7035 24.9207 38.9402 23.4732 38.9812C23.3185 38.9812 23.1592 38.9858 22.9998 38.9858C22.7404 38.9858 22.4764 38.9812 22.2215 38.9675C20.7786 38.8993 19.3858 38.6353 18.0657 38.2074C17.5878 38.0526 17.1144 37.8751 16.6547 37.6748C15.3484 37.1104 14.133 36.373 13.0361 35.4991C12.6492 35.1941 12.2759 34.8664 11.9209 34.5205C10.9013 33.5464 10.0137 32.4358 9.28542 31.2159C9.09879 30.9109 8.92583 30.5969 8.76197 30.2737C8.12472 29.0311 7.64679 27.6929 7.35092 26.2909C7.25078 25.8084 7.16885 25.3214 7.11423 24.8253C7.04595 24.2244 7.00954 23.6099 7.00954 22.9909C7.00954 22.1807 7.06871 21.3796 7.18706 20.6012C7.25078 20.1734 7.32816 19.7546 7.4283 19.3404C7.75148 17.943 8.26127 16.6184 8.92583 15.3895C9.13976 14.9935 9.3719 14.6066 9.62225 14.2288C10.396 13.0453 11.3292 11.9711 12.3852 11.0334C12.6446 10.8013 12.9132 10.5783 13.1908 10.3643C14.3014 9.50406 15.5259 8.78033 16.8413 8.23412C17.3329 8.02929 17.8382 7.84722 18.3571 7.69246C19.6816 7.29191 21.079 7.05521 22.5265 7.01425C22.6812 7.01425 22.836 7.0097 22.9953 7.0097C23.0818 7.0097 23.1637 7.0097 23.2502 7.0097C23.5506 7.01425 23.8146 6.80032 23.8647 6.50445L24.9161 0.769246C24.9844 0.400554 24.7159 0.0591728 24.3426 0.036414C23.8965 0.0091035 23.4459 0 22.9953 0C22.4582 0 21.9211 0.018207 21.3931 0.054621C19.9638 0.150208 18.5664 0.382347 17.2237 0.72828C15.8581 1.07877 14.5427 1.5567 13.291 2.13932C12.0028 2.74015 10.7829 3.45478 9.64045 4.26954C8.72555 4.925 7.86072 5.64417 7.05051 6.42707C6.03547 7.40115 5.10691 8.47536 4.28759 9.6224C3.55021 10.6511 2.89476 11.7435 2.33489 12.8906C1.7204 14.1468 1.21516 15.4669 0.837365 16.8415C0.509639 18.0204 0.2775 19.2357 0.140947 20.4829C0.0499121 21.3067 0.00439453 22.1443 0.00439453 22.9909C0.00439453 23.569 0.0271533 24.1425 0.0681191 24.7069C0.168258 26.0588 0.38219 27.3742 0.705364 28.6487C1.05585 30.0325 1.52923 31.3616 2.11641 32.6315C2.59434 33.6693 3.14965 34.6616 3.77324 35.6084C4.54704 36.7918 5.43008 37.8933 6.40871 38.9129C7.32816 39.8733 8.3341 40.7564 9.40831 41.5438C10.5417 42.3768 11.7525 43.1096 13.027 43.7241C14.2286 44.3022 15.4849 44.7801 16.7913 45.1443C18.1295 45.5221 19.5178 45.777 20.947 45.8999C21.6207 45.959 22.308 45.9909 22.9998 45.9909C23.5415 45.9909 24.0786 45.9727 24.6112 45.9363C26.0404 45.8407 27.4378 45.6086 28.7806 45.2626C29.9185 44.9668 31.02 44.589 32.0851 44.1292C32.4265 43.9836 32.5631 43.5694 32.3765 43.2462L29.4406 38.212C29.2904 37.9525 28.9717 37.8387 28.6895 37.9434C28.3482 38.0754 28.0022 38.1937 27.6472 38.2984L27.6426 38.303ZM36.8281 31.0293C36.7734 31.1249 36.7188 31.2159 36.6642 31.3069C36.5094 31.5618 36.5641 31.8941 36.7917 32.0944L41.2023 35.8997C41.4845 36.1455 41.9169 36.0817 42.1263 35.7722C42.5724 35.1031 42.9866 34.4112 43.3598 33.7012C43.5328 33.3689 43.3826 32.9638 43.0321 32.8318L37.5791 30.7698C37.2969 30.6651 36.9783 30.7698 36.8281 31.0338V31.0293ZM44.6389 17.5425L39.1449 19.4952C38.8581 19.5953 38.6897 19.8866 38.7444 20.187C38.7717 20.3281 38.7944 20.4738 38.8126 20.6149C38.8581 20.9153 39.113 21.1383 39.4135 21.1429L45.2397 21.2385C45.6129 21.243 45.9043 20.9199 45.8678 20.5512C45.7768 19.6863 45.6357 18.8351 45.4491 17.9976C45.3672 17.6335 44.9894 17.4196 44.6343 17.547L44.6389 17.5425ZM41.6802 10.7922L37.1239 14.4245C36.8872 14.6111 36.8235 14.9434 36.9692 15.2074C36.9692 15.212 36.9783 15.2211 36.9783 15.2256C37.1239 15.4896 37.4426 15.608 37.7248 15.5078L43.2187 13.5597C43.5692 13.4368 43.7331 13.0271 43.5647 12.6948C43.2642 12.0986 42.9411 11.5159 42.5906 10.9515C42.3949 10.6329 41.967 10.5555 41.6757 10.7877L41.6802 10.7922ZM29.0764 1.52484L28.025 7.26004C27.9704 7.55591 28.1388 7.85177 28.4255 7.95191C28.5666 8.00198 28.7077 8.0566 28.8488 8.11122C29.1311 8.22046 29.4497 8.11122 29.6044 7.85177L32.604 2.8494C32.7952 2.53077 32.6632 2.11201 32.3218 1.9618C31.5298 1.61132 30.7151 1.3018 29.8775 1.04235C29.5225 0.933109 29.1447 1.15614 29.081 1.52028L29.0764 1.52484Z" fill="#2400D1"/>
<path d="M68.9454 32.5132C67.2385 32.5132 65.6408 32.1992 64.1524 31.5665C62.664 30.9338 61.3667 30.0735 60.2652 28.9765C59.1637 27.8795 58.2943 26.5959 57.657 25.1212C57.0198 23.651 56.7012 22.0715 56.7012 20.3874C56.7012 18.7032 57.0198 17.1283 57.657 15.6535C58.2943 14.1833 59.1637 12.8997 60.2652 11.8073C61.3667 10.7149 62.664 9.8546 64.1524 9.22191C65.6408 8.58922 67.2385 8.27515 68.9454 8.27515C70.1744 8.27515 71.3942 8.45722 72.6095 8.81681C73.8249 9.17639 74.9446 9.73171 75.9687 10.4736C76.9929 11.2156 77.8714 12.1532 78.6133 13.2912C79.3507 14.4291 79.8559 15.7673 80.129 17.3149H75.7958C75.5682 16.4273 75.2313 15.6581 74.7807 15.0026C74.3301 14.3472 73.8067 13.8101 73.2013 13.3913C72.6004 12.9726 71.9268 12.6585 71.1803 12.4537C70.4338 12.2488 69.6464 12.1487 68.8179 12.1487C67.7255 12.1487 66.7014 12.3444 65.7409 12.7359C64.7805 13.1273 63.943 13.6872 63.2329 14.4064C62.5229 15.1301 61.963 15.9949 61.5533 17.01C61.1437 18.025 60.9389 19.1493 60.9389 20.3919C60.9389 21.6345 61.1437 22.7907 61.5533 23.8057C61.963 24.8208 62.5229 25.681 63.2329 26.3911C63.943 27.1012 64.7805 27.6474 65.7409 28.0298C66.7014 28.4121 67.7255 28.6033 68.8179 28.6033C69.6373 28.6033 70.4156 28.5031 71.1621 28.2983C71.904 28.0935 72.5822 27.7794 73.1922 27.3606C73.8021 26.9419 74.3256 26.4048 74.7716 25.7584C75.2131 25.1121 75.55 24.3428 75.7776 23.4552H80.1245C79.8514 25.0028 79.3461 26.3456 78.6133 27.4881C77.8805 28.6306 77.002 29.5728 75.9778 30.3102C74.9537 31.0476 73.834 31.5983 72.6186 31.9625C71.4033 32.3266 70.1744 32.5087 68.9363 32.5087L68.9454 32.5132Z" fill="#2400D1"/>
<path d="M83.6977 14.4883H87.6531V17.6609C88.0628 16.6959 88.6636 15.9266 89.4511 15.3486C90.2431 14.775 91.2081 14.4883 92.3597 14.4883H94.235V18.0341H92.5827C91.8772 18.0341 91.2308 18.1615 90.6482 18.4164C90.061 18.6713 89.5649 19.0491 89.1461 19.5407C88.7319 20.0369 88.4087 20.6468 88.172 21.3751C87.9399 22.1034 87.8216 22.9318 87.8216 23.8649V32.0171H83.6931V14.4883H83.6977Z" fill="#2400D1"/>
<path d="M113.562 22.95C113.562 23.1776 113.557 23.387 113.543 23.5736C113.534 23.7602 113.511 24.0197 113.475 24.3474H99.7834C99.8835 25.0621 100.084 25.7038 100.38 26.2637C100.676 26.8236 101.035 27.297 101.463 27.6793C101.891 28.0617 102.373 28.353 102.92 28.5578C103.466 28.7626 104.039 28.8628 104.64 28.8628C105.687 28.8628 106.534 28.6579 107.18 28.2483C107.826 27.8386 108.3 27.2605 108.596 26.5095H113.097C112.879 27.2924 112.524 28.048 112.032 28.7763C111.536 29.5046 110.931 30.1464 110.216 30.7017C109.501 31.257 108.677 31.7031 107.753 32.0399C106.829 32.3767 105.819 32.5406 104.727 32.5406C103.407 32.5406 102.196 32.2948 101.085 31.8077C99.9745 31.3207 99.0187 30.6562 98.213 29.8141C97.4074 28.972 96.7747 27.9888 96.3195 26.8554C95.8643 25.7266 95.6367 24.5204 95.6367 23.2505C95.6367 21.9805 95.8643 20.7606 96.3195 19.6364C96.7747 18.5121 97.4028 17.5289 98.213 16.6868C99.0187 15.8448 99.9791 15.1802 101.085 14.6932C102.191 14.2061 103.407 13.9603 104.727 13.9603C106.047 13.9603 107.248 14.2016 108.332 14.6841C109.415 15.1665 110.348 15.822 111.122 16.6459C111.896 17.4697 112.496 18.4256 112.92 19.5089C113.348 20.5968 113.562 21.7393 113.562 22.9455V22.95ZM109.351 21.1566C109.306 20.6696 109.151 20.2053 108.891 19.7684C108.632 19.3314 108.291 18.949 107.876 18.6259C107.462 18.3027 106.98 18.0432 106.433 17.8521C105.887 17.6609 105.314 17.5608 104.713 17.5608C104.189 17.5608 103.68 17.6336 103.188 17.7747C102.692 17.9158 102.237 18.1343 101.813 18.4301C101.395 18.726 101.021 19.0993 100.698 19.5544C100.375 20.0096 100.125 20.5422 99.9563 21.1566H109.351Z" fill="#2400D1"/>
<path d="M124.427 32.5497C123.188 32.5497 122.046 32.3084 121.008 31.8259C119.97 31.3434 119.074 30.6789 118.323 29.8414C117.572 28.9993 116.989 28.0161 116.575 26.8827C116.161 25.7539 115.951 24.5431 115.951 23.2595C115.951 21.9759 116.156 20.7697 116.566 19.6454C116.975 18.5212 117.553 17.538 118.295 16.6959C119.042 15.8538 119.939 15.1893 120.99 14.7022C122.041 14.2152 123.202 13.9694 124.477 13.9694C125.191 13.9694 125.86 14.0695 126.479 14.2698C127.098 14.4701 127.663 14.7295 128.168 15.0436C128.673 15.3622 129.115 15.7264 129.488 16.136C129.861 16.5457 130.166 16.9554 130.394 17.365L130.307 15.5398V8.02026H134.418V32.0308H130.494V29.0812C130.235 29.5364 129.907 29.9734 129.52 30.3921C129.133 30.8109 128.682 31.1841 128.173 31.5073C127.663 31.8305 127.094 32.0854 126.466 32.2765C125.842 32.4632 125.159 32.5588 124.417 32.5588L124.427 32.5497ZM125.178 28.7444C125.892 28.7444 126.566 28.6078 127.199 28.3256C127.831 28.0434 128.377 27.6611 128.842 27.1649C129.306 26.6688 129.675 26.0862 129.943 25.4171C130.212 24.748 130.344 24.0242 130.344 23.2504C130.344 22.4766 130.212 21.7574 129.943 21.0929C129.675 20.4283 129.311 19.8503 128.842 19.3632C128.377 18.8762 127.831 18.4893 127.203 18.2025C126.58 17.9203 125.901 17.7747 125.173 17.7747C124.445 17.7747 123.767 17.9112 123.134 18.1843C122.501 18.4574 121.959 18.8352 121.495 19.3177C121.035 19.8002 120.671 20.3783 120.403 21.0474C120.134 21.7165 120.002 22.4493 120.002 23.2459C120.002 24.0424 120.13 24.7388 120.385 25.4125C120.639 26.0816 120.995 26.6642 121.45 27.1604C121.905 27.6565 122.451 28.0434 123.088 28.3211C123.726 28.5987 124.417 28.7398 125.168 28.7398L125.178 28.7444Z" fill="#2400D1"/>
<path d="M136.748 34.5933H139.666C140.13 34.5933 140.531 34.5387 140.858 34.4295C141.186 34.3202 141.473 34.1518 141.719 33.9197C141.965 33.6875 142.183 33.3917 142.374 33.0412C142.565 32.6907 142.757 32.2719 142.939 31.7986L143.143 31.2023L136.425 14.4928H140.772L144.9 25.0984L145.342 26.9054L145.802 25.1166L149.862 14.511L154.259 14.4928L147.422 31.6301C146.912 32.9365 146.402 34.0062 145.897 34.8346C145.392 35.663 144.841 36.3139 144.245 36.7782C143.649 37.2425 142.984 37.5656 142.26 37.7431C141.537 37.9207 140.681 38.0071 139.702 38.0071H136.753V34.5979L136.748 34.5933Z" fill="#2400D1"/>
<path d="M156.262 14.4882H160.185V17.2147C160.436 16.7368 160.763 16.2998 161.164 15.9038C161.565 15.5078 162.029 15.1619 162.543 14.8706C163.058 14.5793 163.627 14.3562 164.241 14.1969C164.855 14.0376 165.497 13.9557 166.166 13.9557C168.52 13.9557 170.281 14.7022 171.451 16.1997C172.621 17.6927 173.208 19.8183 173.208 22.5676V32.0125H169.08V22.6495C169.08 21.7756 168.984 21.0291 168.797 20.4146C168.611 19.8001 168.338 19.2949 167.987 18.8989C167.637 18.5029 167.209 18.2116 166.708 18.0295C166.207 17.8474 165.643 17.7564 165.019 17.7564C164.396 17.7564 163.836 17.8747 163.271 18.1069C162.707 18.339 162.215 18.6804 161.788 19.131C161.36 19.5817 161.018 20.1324 160.763 20.7924C160.509 21.4524 160.381 22.208 160.381 23.0592V32.0125H156.253V14.4882H156.262Z" fill="#2400D1"/>
<path d="M193.172 22.95C193.172 23.1776 193.167 23.387 193.153 23.5736C193.144 23.7602 193.122 24.0197 193.085 24.3474H179.393C179.494 25.0621 179.694 25.7038 179.99 26.2637C180.286 26.8236 180.645 27.297 181.073 27.6793C181.501 28.0617 181.983 28.353 182.53 28.5578C183.076 28.7626 183.649 28.8628 184.25 28.8628C185.297 28.8628 186.144 28.6579 186.79 28.2483C187.436 27.8386 187.91 27.2605 188.206 26.5095H192.707C192.489 27.2924 192.134 28.048 191.642 28.7763C191.146 29.5046 190.541 30.1464 189.826 30.7017C189.111 31.257 188.288 31.7031 187.364 32.0399C186.44 32.3767 185.429 32.5406 184.337 32.5406C183.017 32.5406 181.806 32.2948 180.695 31.8077C179.585 31.3207 178.629 30.6562 177.823 29.8141C177.017 28.972 176.385 27.9888 175.93 26.8554C175.474 25.7266 175.247 24.5204 175.247 23.2505C175.247 21.9805 175.474 20.7606 175.93 19.6364C176.385 18.5121 177.013 17.5289 177.823 16.6868C178.629 15.8448 179.589 15.1802 180.695 14.6932C181.801 14.2061 183.017 13.9603 184.337 13.9603C185.657 13.9603 186.858 14.2016 187.942 14.6841C189.025 15.1665 189.958 15.822 190.732 16.6459C191.506 17.4697 192.107 18.4256 192.53 19.5089C192.958 20.5968 193.172 21.7393 193.172 22.9455V22.95ZM188.957 21.1566C188.911 20.6696 188.756 20.2053 188.497 19.7684C188.238 19.3314 187.896 18.949 187.482 18.6259C187.068 18.3027 186.585 18.0432 186.039 17.8521C185.493 17.6609 184.919 17.5608 184.318 17.5608C183.795 17.5608 183.285 17.6336 182.794 17.7747C182.297 17.9158 181.842 18.1343 181.419 18.4301C181 18.726 180.627 19.0993 180.304 19.5544C179.981 20.0096 179.73 20.5422 179.562 21.1566H188.957Z" fill="#2400D1"/>
<path d="M212.785 22.95C212.785 23.1776 212.781 23.387 212.767 23.5736C212.758 23.7602 212.735 24.0197 212.699 24.3474H199.007C199.107 25.0621 199.308 25.7038 199.604 26.2637C199.899 26.8236 200.259 27.297 200.687 27.6793C201.115 28.0617 201.597 28.353 202.143 28.5578C202.69 28.7626 203.263 28.8628 203.864 28.8628C204.911 28.8628 205.757 28.6579 206.404 28.2483C207.05 27.8386 207.524 27.2605 207.819 26.5095H212.321C212.103 27.2924 211.748 28.048 211.256 28.7763C210.76 29.5046 210.154 30.1464 209.44 30.7017C208.725 31.257 207.901 31.7031 206.977 32.0399C206.053 32.3767 205.043 32.5406 203.95 32.5406C202.63 32.5406 201.42 32.2948 200.309 31.8077C199.198 31.3207 198.243 30.6562 197.437 29.8141C196.631 28.972 195.999 27.9888 195.543 26.8554C195.088 25.7266 194.861 24.5204 194.861 23.2505C194.861 21.9805 195.088 20.7606 195.543 19.6364C195.999 18.5121 196.627 17.5289 197.437 16.6868C198.243 15.8448 199.203 15.1802 200.309 14.6932C201.415 14.2061 202.63 13.9603 203.95 13.9603C205.27 13.9603 206.472 14.2016 207.555 14.6841C208.639 15.1665 209.572 15.822 210.346 16.6459C211.119 17.4697 211.72 18.4256 212.144 19.5089C212.571 20.5968 212.785 21.7393 212.785 22.9455V22.95ZM208.57 21.1566C208.525 20.6696 208.37 20.2053 208.111 19.7684C207.851 19.3314 207.51 18.949 207.096 18.6259C206.681 18.3027 206.199 18.0432 205.653 17.8521C205.107 17.6609 204.533 17.5608 203.932 17.5608C203.409 17.5608 202.899 17.6336 202.407 17.7747C201.911 17.9158 201.456 18.1343 201.033 18.4301C200.614 18.726 200.241 19.0993 199.918 19.5544C199.594 20.0096 199.344 20.5422 199.176 21.1566H208.57Z" fill="#2400D1"/>
<path d="M215.43 7.99292H219.558V32.0171H215.43V7.99292Z" fill="#2400D1"/>
</g>
<defs>
<clipPath id="clip0_67_551">
<rect width="219.554" height="46" fill="white"/>
</clipPath>
</defs>
</svg>
